HIERARCHY
ROOT Hips
{
	OFFSET -0.001795 -0.223333 0.028219
	CHANNELS 6 Xposition Yposition Zposition Zrotation Yrotation Xrotation 
	JOINT LeftUpLeg
	{
		OFFSET 0.069520 -0.091406 -0.006815
		CHANNELS 3 Zrotation Yrotation Xrotation
		JOINT LeftLeg
		{
			OFFSET 0.034277 -0.375199 -0.004496
			CHANNELS 3 Zrotation Yrotation Xrotation
			JOINT LeftFoot
			{
				OFFSET -0.013596 -0.397961 -0.043693
				CHANNELS 3 Zrotation Yrotation Xrotation
				JOINT LeftToe
				{
					OFFSET 0.026358 -0.055791 0.119288
					CHANNELS 3 Zrotation Yrotation Xrotation
					End Site
					{
						OFFSET 0.000000 0.000000 0.000000
					}
				}
			}
		}
	}
	JOINT RightUpLeg
	{
		OFFSET -0.067670 -0.090522 -0.004320
		CHANNELS 3 Zrotation Yrotation Xrotation
		JOINT RightLeg
		{
			OFFSET -0.038290 -0.382569 -0.008850
			CHANNELS 3 Zrotation Yrotation Xrotation
			JOINT RightFoot
			{
				OFFSET 0.015774 -0.398415 -0.042312
				CHANNELS 3 Zrotation Yrotation Xrotation
				JOINT RightToe
				{
					OFFSET -0.025372 -0.048144 0.123348
					CHANNELS 3 Zrotation Yrotation Xrotation
					End Site
					{
						OFFSET 0.000000 0.000000 0.000000
					}
				}
			}
		}
	}
	JOINT Spine
	{
		OFFSET -0.002533 0.108963 -0.026696
		CHANNELS 3 Zrotation Yrotation Xrotation
		JOINT Spine1
		{
			OFFSET 0.005487 0.135180 0.001092
			CHANNELS 3 Zrotation Yrotation Xrotation
			JOINT Spine2
			{
				OFFSET 0.001457 0.052922 0.025425
				CHANNELS 3 Zrotation Yrotation Xrotation
				JOINT Neck
				{
					OFFSET -0.002778 0.213870 -0.042857
					CHANNELS 3 Zrotation Yrotation Xrotation
					JOINT Head
					{
						OFFSET 0.005152 0.064970 0.051349
						CHANNELS 3 Zrotation Yrotation Xrotation
						End Site
						{
							OFFSET 0.000000 0.000000 0.000000
						}
					}
				}
				JOINT LeftShoulder
				{
					OFFSET 0.078845 0.121749 -0.034090
					CHANNELS 3 Zrotation Yrotation Xrotation
					JOINT LeftArm
					{
						OFFSET 0.090977 0.030469 -0.008868
						CHANNELS 3 Zrotation Yrotation Xrotation
						JOINT LeftForeArm
						{
							OFFSET 0.259612 -0.012772 -0.027456
							CHANNELS 3 Zrotation Yrotation Xrotation
							JOINT LeftHand
							{
								OFFSET 0.249234 0.008986 -0.001171
								CHANNELS 3 Zrotation Yrotation Xrotation
								End Site
								{
									OFFSET 0.000000 0.000000 0.000000
								}
							}
						}
					}
				}
				JOINT RightShoulder
				{
					OFFSET -0.081759 0.118833 -0.038615
					CHANNELS 3 Zrotation Yrotation Xrotation
					JOINT RightArm
					{
						OFFSET -0.096012 0.032551 -0.009143
						CHANNELS 3 Zrotation Yrotation Xrotation
						JOINT RightForeArm
						{
							OFFSET -0.253742 -0.013329 -0.021401
							CHANNELS 3 Zrotation Yrotation Xrotation
							JOINT RightHand
							{
								OFFSET -0.255298 0.007772 -0.005559
								CHANNELS 3 Zrotation Yrotation Xrotation
								End Site
								{
									OFFSET 0.000000 0.000000 0.000000
								}
							}
						}
					}
				}
			}
		}
	}
}
MOTION
Frames: 9
Frame Time: 0.050000
0.000000 0.925526 0.000000 1.191379 -1.771670 0.041354 8.067979 -0.425018 -19.948884 -3.603465 0.409261 0.526442 5.266882 13.271394 14.849010 0.000000 0.000000 0.000000 -0.820467 -0.414865 4.838825 0.950507 0.172178 8.036263 -3.302920 -4.624226 -8.750884 0.000000 0.000000 0.000000 6.484599 -0.841301 8.252980 -2.055607 0.987139 -1.583182 -1.842674 6.705820 9.929759 7.108851 -2.480568 -17.152949 0.000000 0.000000 0.000000 -18.450693 -11.214137 2.737002 -49.466816 -7.013446 -3.165074 -8.538076 -52.325797 5.467707 0.000000 0.000000 0.000000 17.112386 3.712517 1.936033 54.218568 13.226693 -0.103759 3.432212 45.317139 4.237621 0.000000 0.000000 0.000000 
0.011388 0.921840 0.023381 0.156234 -1.810352 0.595497 8.203753 -0.408588 -19.883501 -3.301918 0.376683 -0.465820 5.432883 13.419693 13.978256 0.000000 0.000000 0.000000 -0.495810 -0.530315 5.832814 1.440402 0.096827 8.345170 -3.333055 -4.675819 -8.858178 0.000000 0.000000 0.000000 7.453362 -0.847191 7.409182 -2.365384 1.129750 -1.375241 -1.357774 6.382079 9.996161 6.665433 -2.098911 -18.098521 0.000000 0.000000 0.000000 -17.769249 -10.169729 2.350338 -49.603730 -7.072025 -3.211971 -8.646131 -55.574979 5.982058 0.000000 0.000000 0.000000 16.117914 2.574323 1.227918 56.857649 13.649315 0.299721 4.521367 46.161643 4.815900 0.000000 0.000000 0.000000 
0.024429 0.921258 0.048811 -0.020056 -3.713572 0.191558 7.677640 -0.378850 -18.344716 -2.800537 0.320621 1.214502 6.346697 14.620433 14.396174 0.000000 0.000000 0.000000 -1.542262 -0.531123 7.169524 1.174061 0.217349 9.734092 -2.943422 -3.496785 -8.132652 0.000000 0.000000 0.000000 7.472877 -0.840478 7.592567 -2.198969 1.037032 -2.618741 -1.915573 8.134334 11.070132 6.527177 -1.958716 -17.893679 0.000000 0.000000 0.000000 -15.965838 -9.539329 1.986006 -49.692647 -7.542187 -3.152469 -12.005045 -58.790111 8.074816 0.000000 0.000000 0.000000 16.736914 2.111550 1.191716 54.513192 14.117974 0.229134 8.728728 48.992863 7.246921 0.000000 0.000000 0.000000 
0.038624 0.921266 0.075727 -0.374658 -4.158752 0.413690 7.560860 -0.381401 -18.329247 -3.592589 0.429398 3.119075 6.606953 15.000305 14.877850 0.000000 0.000000 0.000000 -1.439717 -0.620447 8.274231 0.013701 0.416705 9.330350 -3.181762 -4.584053 -7.339624 0.000000 0.000000 0.000000 7.584929 -0.763654 6.738057 -2.267941 1.063651 -2.713047 -1.618184 7.568131 11.788902 5.840008 -1.909325 -16.148881 0.000000 0.000000 0.000000 -16.078732 -9.526163 2.203919 -49.341255 -7.099077 -3.409677 -13.267175 -63.137909 9.852296 0.000000 0.000000 0.000000 16.120876 2.218428 1.065428 55.706894 13.830804 0.149694 10.589052 52.571300 8.765814 0.000000 0.000000 0.000000 
0.052969 0.921271 0.102513 -0.705261 -4.754380 0.693616 6.821595 -0.481720 -18.444322 -3.218265 0.381086 5.578347 6.771211 15.054634 12.954712 0.000000 0.000000 0.000000 -1.783816 -0.631581 9.079814 -0.660305 0.541394 9.277875 -2.814993 -4.343600 -5.625823 0.000000 0.000000 0.000000 7.328293 -0.709537 6.321507 -1.856689 0.872516 -2.555487 -1.727755 7.442371 11.326812 6.246056 -2.284003 -15.690054 0.000000 0.000000 0.000000 -16.162824 -9.488284 2.267645 -48.377615 -6.958483 -3.368317 -15.282747 -67.003732 12.023576 0.000000 0.000000 0.000000 17.233157 1.301586 0.472711 54.043089 13.537534 -0.062868 13.420564 55.475737 10.750484 0.000000 0.000000 0.000000 
0.066666 0.921265 0.127660 -1.066807 -5.394196 0.982128 6.781498 -0.463198 -18.258832 -3.843545 0.514448 7.397321 6.776574 14.855583 10.527250 0.000000 0.000000 0.000000 -2.222401 -0.599102 9.559875 -1.371705 0.727218 10.095064 -2.238696 -3.278727 -4.494072 0.000000 0.000000 0.000000 7.087425 -0.692808 6.261669 -1.843443 0.869386 -1.591868 -1.733416 6.554450 10.745949 5.341886 -1.892942 -15.222652 0.000000 0.000000 0.000000 -15.912105 -9.048362 2.327414 -47.427490 -8.051883 -2.901850 -15.905745 -71.869330 13.961788 0.000000 0.000000 0.000000 17.767799 1.456427 0.248352 54.234183 12.819509 -0.292462 14.545650 59.085258 11.958243 0.000000 0.000000 0.000000 
0.079955 0.921906 0.150247 -1.603557 -5.865755 1.276632 6.848827 -0.429847 -17.779105 -4.362512 0.643678 8.676007 6.803740 14.755789 8.653974 0.000000 0.000000 0.000000 -2.809415 -0.468677 8.776337 -1.129731 0.791129 11.708053 -1.994117 -3.463161 -2.900394 0.000000 0.000000 0.000000 6.787659 -0.727629 6.770857 -1.669569 0.787361 -1.463900 -1.778120 6.616952 10.634658 5.555808 -2.053884 -15.177524 0.000000 0.000000 0.000000 -15.148727 -9.457201 2.603668 -46.728922 -10.100980 -2.110631 -16.086391 -76.112185 15.258092 0.000000 0.000000 0.000000 18.437420 0.992033 -0.067801 53.509176 11.834931 -0.756395 16.422561 61.921430 13.771613 0.000000 0.000000 0.000000 
0.093106 0.922562 0.170250 -2.280186 -5.771160 2.008244 7.172791 -0.397403 -18.216462 -4.921111 0.789956 10.216633 7.041930 15.098736 7.222559 0.000000 0.000000 0.000000 -3.301204 -0.286642 6.651867 -0.569030 0.886682 15.034814 -1.744700 -3.367215 -1.897925 0.000000 0.000000 0.000000 5.995792 -0.759144 7.530036 -1.354506 0.644939 -0.799568 -1.599585 5.906383 10.252962 5.554540 -2.164264 -14.848771 0.000000 0.000000 0.000000 -14.381041 -9.944875 3.002442 -45.776404 -13.983785 -0.649488 -8.344864 -79.700135 10.008757 0.000000 0.000000 0.000000 18.963797 0.851204 -0.332677 53.267867 11.564767 -0.825544 14.477785 63.821913 12.899963 0.000000 0.000000 0.000000 
0.106393 0.922005 0.188608 -2.995079 -5.956765 2.440572 7.684627 -0.313898 -18.705330 -5.604100 0.999578 11.967093 7.238295 15.394596 6.376919 0.000000 0.000000 0.000000 -3.892277 -0.073840 3.984960 0.742416 0.876845 20.051323 -2.274318 -5.002533 -1.372756 0.000000 0.000000 0.000000 5.126694 -0.815796 9.001476 -0.853116 0.409930 -0.674710 -1.555595 5.769653 10.258717 5.915422 -2.529386 -14.126341 0.000000 0.000000 0.000000 -14.157342 -11.774107 3.949269 -43.801488 -18.213718 0.824440 13.569008 -80.718671 -8.318722 0.000000 0.000000 0.000000 19.897988 1.262986 -0.191449 52.083496 11.104261 -1.066787 11.202018 65.315614 11.117482 0.000000 0.000000 0.000000 
